<svg width="31" height="31" viewBox="0 0 31 31" fill="none" xmlns="http://www.w3.org/2000/svg">
<path d="M5 25.5H22.5V30.5H2.5C1.11929 30.5 0 29.3807 0 28V0H5V25.5ZM22.4922 0.152344C24.0921 0.152357 25.5217 0.31185 26.7803 0.631836C28.0387 0.951799 29.2011 1.45325 30.2676 2.13574V7.51172C29.3291 6.76528 28.2627 6.22117 27.0684 5.87988C25.895 5.53855 24.5399 5.36816 23.0039 5.36816C20.8067 5.36818 19.1107 5.94382 17.916 7.0957C16.7213 8.22637 16.124 9.80536 16.124 11.832C16.124 13.8586 16.7215 15.4476 17.916 16.5996C19.132 17.7516 20.8279 18.3281 23.0039 18.3281C24.5398 18.3281 25.9159 18.1468 27.1318 17.7842C28.3478 17.4215 29.4791 16.845 30.5244 16.0557V21.4004C28.4978 22.787 25.8201 23.4804 22.4922 23.4805C20.0602 23.4805 17.9156 23.0109 16.0596 22.0723C14.225 21.1336 12.8063 19.7893 11.8037 18.04C10.8011 16.2694 10.2998 14.2 10.2998 11.832C10.2998 9.46417 10.8012 7.40552 11.8037 5.65625C12.8063 3.88566 14.225 2.53046 16.0596 1.5918C17.9156 0.631797 20.0602 0.152344 22.4922 0.152344Z" fill="white"/>
</svg>
